<!-- Generator: Adobe Illustrator 20.1.0, SVG Export Plug-In  -->
<svg version="1.1"
	 xmlns="http://www.w3.org/2000/svg" xmlns:xlink="http://www.w3.org/1999/xlink" xmlns:a="http://ns.adobe.com/AdobeSVGViewerExtensions/3.0/"
	 x="0px" y="0px" width="72px" height="72px" viewBox="0 0 72 72" style="enable-background:new 0 0 72 72;" xml:space="preserve">
<style type="text/css">
	.st1{fill:#FFFFFF;}
</style>
<defs>
</defs>
<g>
	<g>
		<g>
			<path class="st1" d="M36,0C16.1,0,0,16.1,0,36s16.1,36,36,36c19.9,0,36-16.1,36-36S55.9,0,36,0z M39.2,54.6h-6.4V38.8h6.4V54.6z
				 M48.6,38.4L36,33.9l-12.6,4.6v-5.2L36,28.7l12.6,4.6V38.4z M48.6,29.3L36,24.8l-12.6,4.6v-5.2L36,19.5l12.6,4.6V29.3z"/>
		</g>
		<g>
			<path class="st1" d="M66,72v-3.2h-1.2v-0.6h3.1v0.6h-1.2V72H66z M71.2,72l0-2.3c0-0.3,0-0.5,0-0.8c-0.1,0.2-0.1,0.4-0.2,0.6
				L70.3,72h-0.6L69,69.5c-0.1-0.2-0.1-0.4-0.2-0.6c0,0.3,0,0.5,0,0.8l0,2.3h-0.7v-3.8h0.9l0.9,3l0.9-3h0.9V72H71.2z"/>
		</g>
	</g>
</g>
</svg>