<!-- Generator: Adobe Illustrator 20.1.0, SVG Export Plug-In  -->
<svg version="1.1"
	 xmlns="http://www.w3.org/2000/svg" xmlns:xlink="http://www.w3.org/1999/xlink" xmlns:a="http://ns.adobe.com/AdobeSVGViewerExtensions/3.0/"
	 x="0px" y="0px" width="288px" height="37.8px" viewBox="0 0 288 37.8" style="enable-background:new 0 0 288 37.8;"
	 xml:space="preserve">
<style type="text/css">
	.st0{fill:#000000;}
</style>
<defs>
</defs>
<g>
	<g>
		<path class="st0" d="M19.3,12.3v19.4h-7.8V12.3H19.3z"/>
		<path class="st0" d="M34.9,6h22.2c4.6,0,6.6,0.4,8,1.6c1.5,1.2,2.2,3.4,2.2,6.9c0,4.8-1.2,6.7-4.4,7.4c3.2,0.5,4.2,1.9,4.1,5.8
			v4.1H59v-3.2c0-2.8-0.8-3.4-4.3-3.3h-12v6.5h-7.8V6z M54.9,18.9c3.8,0,4.5-0.5,4.5-3c0-1.7-0.2-2.4-0.7-2.9
			c-0.6-0.6-1.2-0.7-3.6-0.7H42.7v6.6H54.9z"/>
		<path class="st0" d="M101.2,6v5.8H80.4v4.4H100v5.1H80.4v4.6h21.1v5.8H72.7V6H101.2z"/>
		<path class="st0" d="M135.1,6v5.8h-20.8v4.4h19.6v5.1h-19.6v4.6h21.1v5.8h-28.8V6H135.1z"/>
		<path class="st0" d="M202.4,6v5.8h-20.8v4.4h19.6v5.1h-19.6v4.6h21.1v5.8h-28.8V6H202.4z"/>
		<path class="st0" d="M239.7,22c0,3.7-0.2,5-0.7,6.2c-1,2.2-3.1,3.2-7.1,3.5c-1.6,0.2-4.7,0.2-9.8,0.2c-7.4,0-9.8-0.3-11.9-1.7
			c-2.5-1.6-3.3-4.3-3.3-12c0-6.8,0.8-9.2,3.5-10.8c2.3-1.4,4.8-1.7,12-1.7c9.6,0,11.7,0.2,13.9,1.3c2.1,1,3,3.3,3,7.1V15h-7.5
			c-0.2-2.8-0.7-3-7.5-3c-6.4,0-7.6,0.2-8.5,1c-0.9,0.8-1.1,1.9-1.1,6.1c0,6.2,0.6,6.6,8.1,6.6c5.8,0,6.7,0,7.8-0.5
			c1.1-0.5,1.5-1.3,1.5-3.1H239.7z"/>
		<path class="st0" d="M244.8,6h7.8v9.5h17.8V6h7.8v25.7h-7.8v-9.8h-17.8v9.8h-7.8V6z"/>
		<polygon class="st0" points="0,11.9 0,5.6 15.4,0 30.7,5.6 30.7,11.9 15.4,6.4 		"/>
		<path class="st0" d="M158.5,12.3v19.4h-7.8V12.3H158.5z"/>
		<polygon class="st0" points="139.2,11.9 139.2,5.6 154.6,0 170,5.6 170,11.9 154.6,6.4 		"/>
	</g>
	<g>
		<path class="st0" d="M283.2,37.8v-2.6h-1v-0.5h2.5v0.5h-1v2.6H283.2z M287.5,37.8l0-1.9c0-0.2,0-0.4,0-0.6c0,0.2-0.1,0.4-0.2,0.5
			l-0.6,2h-0.5l-0.6-2c-0.1-0.2-0.1-0.3-0.2-0.5c0,0.2,0,0.4,0,0.6l0,1.9H285v-3.1h0.7l0.8,2.4l0.8-2.4h0.7v3.1H287.5z"/>
	</g>
</g>
</svg>